<svg xmlns="http://www.w3.org/2000/svg" width="68" height="68" viewBox="0 0 68 68" version="1.1"><path d="M 28.355 1.040 C 8.781 4.912, -3.800 26.314, 2.966 44.231 C 6.079 52.477, 5.944 52.526, 20.607 37.894 C 33.994 24.534, 33.994 24.534, 43.266 33.767 C 50.423 40.894, 53.160 43, 55.269 43 C 58.856 43, 58.715 42.085, 54.500 38 C 51.568 35.158, 51 33.910, 51 30.304 C 51 26.380, 50.779 26, 48.500 26 C 46.803 26, 46 26.552, 46 27.719 C 46 28.875, 44.033 27.490, 39.992 23.492 C 33.983 17.546, 33.983 17.546, 21.054 30.446 C 8.125 43.346, 8.125 43.346, 7.322 40.423 C 2.577 23.150, 16.232 5.673, 34.500 5.638 C 53.945 5.602, 66.390 23.546, 60.473 43.088 C 57.623 52.503, 62.221 54.669, 65.380 45.399 C 73.668 21.073, 52.896 -3.815, 28.355 1.040 M 29.250 39.214 C 26.185 42.284, 25 42.987, 25 41.735 C 25 40.551, 24.206 40, 22.500 40 C 20.214 40, 20 40.375, 20 44.378 C 20 47.049, 19.415 49.240, 18.500 50 C 16.234 51.880, 16.691 53, 19.723 53 C 21.714 53, 24.085 51.376, 28.543 46.958 C 34.639 40.916, 34.639 40.916, 41.941 49.003 C 45.957 53.451, 49.076 57.237, 48.872 57.418 C 42.475 63.060, 27.843 62.855, 18.996 56.998 C 12.662 52.804, 9.331 55.320, 14.943 60.059 C 24.863 68.439, 42.238 68.375, 54.118 59.916 C 57.147 57.759, 57.147 57.759, 46.324 46.629 C 33.483 33.426, 34.561 33.894, 29.250 39.214 M 30 54 C 30 58.115, 30 58.115, 34.250 57.807 C 38.382 57.509, 38.500 57.403, 38.500 54 C 38.500 50.597, 38.382 50.491, 34.250 50.193 C 30 49.885, 30 49.885, 30 54" stroke="none" fill="#000000" fill-rule="evenodd"/><path d="" stroke="none" fill="#080404" fill-rule="evenodd"/><path d="" stroke="none" fill="#040404" fill-rule="evenodd"/></svg>