<svg class="svg-stroke" xmlns="http://www.w3.org/2000/svg" width="20" viewBox="0 0 24 24"><path fill="#9399a1" d="M16.308 17.308L15.6 16.6l4.588-4.6L15.6 7.4l.708-.708L21.615 12zm-8.616 0L2.385 12l5.307-5.308l.708.708L3.812 12L8.4 16.6zM8 12.769q-.328 0-.548-.221q-.22-.222-.22-.55t.221-.547q.222-.22.55-.22t.547.221q.22.222.22.55t-.221.547q-.222.22-.55.22m4 0q-.327 0-.547-.221q-.22-.222-.22-.55t.221-.547q.222-.22.55-.22t.547.221q.22.222.22.55t-.221.547q-.222.22-.55.22m4 0q-.327 0-.547-.221q-.22-.222-.22-.55t.221-.547q.222-.22.55-.22t.547.221q.22.222.22.55t-.221.547q-.222.22-.55.22"/></svg>