<svg class="svg-stroke" xmlns="http://www.w3.org/2000/svg" width="20" viewBox="0 0 20 10"><path d="M3.33333,12.83333a1.66667,1.66667,0,1,0-1.66666-1.66666,1.67157,1.67157,0,0,0,1.66666,1.66666M4.275,13.75a5.81886,5.81886,0,0,0-.94167-.08333A5.79208,5.79208,0,0,0,1.01667,14.15,1.675,1.675,0,0,0,0,15.69167v.475A.83578.83578,0,0,0,.83333,17H3.75V15.65833A3.749,3.749,0,0,1,4.275,13.75" transform="translate(0 -7)" style="fill:#999"/><path d="M16.66667,12.83333A1.66667,1.66667,0,1,0,15,11.16667a1.67156,1.67156,0,0,0,1.66667,1.66666M20,15.69167A1.6757,1.6757,0,0,0,18.98333,14.15a5.66528,5.66528,0,0,0-3.25833-.4,3.749,3.749,0,0,1,.525,1.90833V17h2.91667A.83578.83578,0,0,0,20,16.16667Z" transform="translate(0 -7)" style="fill:#999"/><path d="M10,12.625a8.84234,8.84234,0,0,1,3.53333.75A2.487,2.487,0,0,1,15,15.65v.51667A.83578.83578,0,0,1,14.16667,17H5.83333A.83578.83578,0,0,1,5,16.16667v-.50834a2.46953,2.46953,0,0,1,1.46667-2.275A8.70035,8.70035,0,0,1,10,12.625M10,7A2.5,2.5,0,1,1,7.5,9.5,2.49666,2.49666,0,0,1,10,7" transform="translate(0 -7)" style="fill:#666"/></svg>