<svg class="svg-stroke" xmlns="http://www.w3.org/2000/svg" width="20" viewBox="0 0 24 24"><path fill="#9399a1" d="M16 18q-.906 0-1.736-.26t-1.526-.753q1.027-.975 1.587-2.272q.56-1.296.56-2.715t-.56-2.715q-.56-1.297-1.587-2.272q.697-.494 1.526-.753Q15.094 6 16 6q2.502 0 4.251 1.749Q22 9.499 22 12q0 2.502-1.749 4.251Q18.501 18 16 18m-8 0q-2.502 0-4.251-1.749Q2 14.501 2 12q0-2.502 1.749-4.251Q5.499 6 8 6q.906 0 1.736.26t1.526.753q-.195.177-.368.378l-.344.401q-.538-.377-1.186-.584Q8.717 7 8 7Q5.925 7 4.463 8.463T3 12q0 2.075 1.463 3.538T8 17q.717 0 1.364-.208q.648-.207 1.186-.584l.344.4q.173.202.368.379q-.697.494-1.526.753Q8.906 18 8 18m4-1.558q-.944-.84-1.472-2Q10 13.282 10 12t.528-2.442q.528-1.16 1.472-2q.944.84 1.472 2Q14 10.718 14 12t-.528 2.442q-.528 1.16-1.472 2"/></svg>