<svg xmlns="http://www.w3.org/2000/svg" viewBox="0 0 140.94 44.64" height="90">
  <g fill="#00b04b">
    <path d="M.13 5.57a5.55 5.55 0 0 1 .43-2.19 5.63 5.63 0 0 1 1.17-1.77A5.32 5.32 0 0 1 3.5.43 5.67 5.67 0 0 1 5.7 0h5.56v2.71H5.7a2.8 2.8 0 0 0-2.07.79 2.8 2.8 0 0 0-.79 2.07 1.91 1.91 0 0 0 .71 1.55 6.8 6.8 0 0 0 1.77 1.02q1.06.42 2.3.85a12.43 12.43 0 0 1 2.3 1.06 6.04 6.04 0 0 1 1.77 1.58 4.08 4.08 0 0 1 .71 2.5 5.81 5.81 0 0 1-5.85 5.85H.42v-2.71h6.13a2.99 2.99 0 0 0 3.14-3.14 1.91 1.91 0 0 0-.71-1.56 6.81 6.81 0 0 0-1.77-1q-1.06-.44-2.3-.87a12.29 12.29 0 0 1-2.3-1.05A6 6 0 0 1 .84 8.06a4.07 4.07 0 0 1-.71-2.5Z"/>
    <path d="M18.4 11.7h2.42L23.68 6h2.71l-3.57 6.99 3.57 7h-2.71l-2.86-5.72H18.4v5.71h-2.57V2.57h-2V0h4.57Z"/>
    <path d="M29.53 17.41V8.56h-2V6h4.57v11.42h2.57v2.57h-7.71v-2.57ZM32.1 2.86h-2.57V0h2.57Z"/>
    <path d="M39.52 19.98h-2.57V2.57h-2V0h4.57Z"/>
    <path d="M46.37 19.98H43.8V2.57h-2V0h4.57Z"/>
    <path d="M55.87 16.93a1.66 1.66 0 0 0 .49-1.23.96.96 0 0 0-.53-.86 6.04 6.04 0 0 0-1.33-.55l-1.7-.52a8.57 8.57 0 0 1-1.72-.71 4.24 4.24 0 0 1-1.33-1.13 2.86 2.86 0 0 1-.53-1.8 4.5 4.5 0 0 1 .3-1.67A3.8 3.8 0 0 1 51.7 6.3a4.48 4.48 0 0 1 1.67-.3h4.71v2.57h-4.7a1.56 1.56 0 0 0-1.58 1.57.96.96 0 0 0 .53.86 5.99 5.99 0 0 0 1.33.56l1.71.51a8.6 8.6 0 0 1 1.71.71 4.26 4.26 0 0 1 1.33 1.13 2.86 2.86 0 0 1 .53 1.8 4.03 4.03 0 0 1-4.28 4.28H49.5v-2.57h5.14a1.66 1.66 0 0 0 1.22-.48Z"/>
    <path d="M78.9 19.98H66.93V0h11.99v2.71h-9.28v5.85h6.7v2.72h-6.7v5.99h9.28Z"/>
    <path d="M84.33 7.42a3.68 3.68 0 0 1 .86-.85 5.35 5.35 0 0 1 1.07-.59 4.07 4.07 0 0 1 3.12.09 4.38 4.38 0 0 1 1.37 1 4.66 4.66 0 0 1 .95 1.54 5.46 5.46 0 0 1 .34 1.95v9.42h-2.57v-9.42a2.24 2.24 0 0 0-2.28-2.28A2.95 2.95 0 0 0 86 8.5a5.25 5.25 0 0 0-.9.48 3.47 3.47 0 0 0-.77.72v10.27h-2.57V8.56h-2V6h4.57Z"/>
    <path d="M95.46 10.85a5.38 5.38 0 0 1 .39-2.06 4.82 4.82 0 0 1 2.7-2.7 5.67 5.67 0 0 1 4.1 0 4.82 4.82 0 0 1 2.7 2.7 5.38 5.38 0 0 1 .39 2.06v3.57h-7.7v.7a2.24 2.24 0 0 0 2.28 2.3h4.56v2.56h-4.56a5.2 5.2 0 0 1-1.97-.36 4.46 4.46 0 0 1-2.53-2.52 5.22 5.22 0 0 1-.36-1.97Zm5.14-2.57a2.54 2.54 0 0 0-2.57 2.57v1.14h5.14v-1.14a2.53 2.53 0 0 0-2.57-2.57Z"/>
    <path d="M106.88 19.98v-2.57h2.57V8.56h-2V6h4.57v1.43a3.66 3.66 0 0 1 .86-.85 5.34 5.34 0 0 1 1.07-.59 3.84 3.84 0 0 1 1.5-.27h1.14v2.85h-1.72a2.97 2.97 0 0 0-1.18.23 5.27 5.27 0 0 0-.9.49 3.45 3.45 0 0 0-.77.71v7.42h2.57v2.57Z"/>
    <path d="M117.44 21.55a3.41 3.41 0 0 1 .29-1.43 4.35 4.35 0 0 1 .63-1.02 3.93 3.93 0 0 1 .94-.83 3.4 3.4 0 0 1-.57-.6 3.48 3.48 0 0 1-.4-.73 2.76 2.76 0 0 1 0-1.91 3.5 3.5 0 0 1 .4-.73 3.44 3.44 0 0 1 .57-.6 3.66 3.66 0 0 1-.8-.83 3.71 3.71 0 0 1-.54-1 4.1 4.1 0 0 1-.23-1.45 4.72 4.72 0 0 1 .33-1.78 4.02 4.02 0 0 1 .92-1.4 4.24 4.24 0 0 1 1.45-.92A5.12 5.12 0 0 1 122.3 6h6.7v2.57h-1.97a2.84 2.84 0 0 1 .26.55 3.67 3.67 0 0 1 .2.6 2.94 2.94 0 0 1 .09.7 4.72 4.72 0 0 1-.33 1.8 4.05 4.05 0 0 1-.93 1.4 4.22 4.22 0 0 1-1.44.9 5.1 5.1 0 0 1-1.87.33h-1.43a1 1 0 0 0-1.14 1.15 1 1 0 0 0 1.14 1.14h2a5.13 5.13 0 0 1 1.87.32 4.25 4.25 0 0 1 1.44.92 4.05 4.05 0 0 1 .93 1.4 5.02 5.02 0 0 1 0 3.57 4.06 4.06 0 0 1-.93 1.4 4.26 4.26 0 0 1-1.44.9 5.1 5.1 0 0 1-1.87.34H122a5.1 5.1 0 0 1-1.87-.33 4.25 4.25 0 0 1-1.44-.92 4.06 4.06 0 0 1-.93-1.4 4.73 4.73 0 0 1-.33-1.78Zm4.57-1.85a1.96 1.96 0 0 0-1.43.55 1.76 1.76 0 0 0 0 2.6 1.96 1.96 0 0 0 1.43.56h1.57a1.96 1.96 0 0 0 1.43-.56 1.76 1.76 0 0 0 0-2.6 1.96 1.96 0 0 0-1.43-.55Zm1-7.43a1.96 1.96 0 0 0 1.43-.55 1.76 1.76 0 0 0 0-2.6 1.96 1.96 0 0 0-1.43-.56h-.71a1.96 1.96 0 0 0-1.43.56 1.76 1.76 0 0 0 0 2.6 1.96 1.96 0 0 0 1.43.55Z"/>
    <path d="M138.14 6h2.7l-4.7 15.7a7.3 7.3 0 0 1-1.79 3.2 4.28 4.28 0 0 1-3.06 1.08h-.86V23.4h.86a2.19 2.19 0 0 0 1.5-.49 2.66 2.66 0 0 0 .78-1.23l.57-1.85-3.85-11.28h-1.86V6h3.71l3.17 9.85Z"/>
  </g>
  <g fill="#9399a1">
    <path d="M.04 39.24v-3.3a5.02 5.02 0 0 1 .2-1.2 2.84 2.84 0 0 1 1.5-1.5 2.54 2.54 0 0 1 1.2-.2 5.02 5.02 0 0 1 1.2.2 2.18 2.18 0 0 1 .8.5 4.05 4.05 0 0 1 .5.9l-1 .6a.85.85 0 0 0-.3-.5c-.2-.1-.3-.3-.5-.4a1.7 1.7 0 0 0-1.4-.1 1.96 1.96 0 0 0-.9.9 1.48 1.48 0 0 0-.1.7v3.3a1.7 1.7 0 0 0 .1.7 1.96 1.96 0 0 0 .9.9 1.48 1.48 0 0 0 .7.1.84.84 0 0 0 .7-.2 1.76 1.76 0 0 0 .5-.4.85.85 0 0 0 .3-.5l1 .6a2.4 2.4 0 0 1-.6.8 5.55 5.55 0 0 1-.8.6 1.43 1.43 0 0 1-1.1.3 5.02 5.02 0 0 1-1.2-.2 2.84 2.84 0 0 1-1.5-1.5 1.47 1.47 0 0 1-.2-1.1Z"/>
    <path d="M10.54 37.04a1.8 1.8 0 0 0-.5-.7 3.04 3.04 0 0 0-.7-.5 2.96 2.96 0 0 0-1-.2 1.8 1.8 0 0 0-1 .2 1.8 1.8 0 0 0-.7.5 1.61 1.61 0 0 0-.4.7 2.96 2.96 0 0 0-.2 1v1.7a2.24 2.24 0 0 0 .7 1.7 3.04 3.04 0 0 0 .7.5 2.77 2.77 0 0 0 .9.1 1.8 1.8 0 0 0 1-.2 1.8 1.8 0 0 0 .7-.5 3.04 3.04 0 0 0 .5-.7 2.96 2.96 0 0 0 .2-1v-1.6a2.96 2.96 0 0 0-.2-1Zm-.9 2.7a1.61 1.61 0 0 1-.3.9 1.4 1.4 0 0 1-.9.3 1.61 1.61 0 0 1-.9-.3.92.92 0 0 1-.3-.9v-1.7a1.61 1.61 0 0 1 .3-.9.92.92 0 0 1 .9-.3 1.61 1.61 0 0 1 .9.3 1.4 1.4 0 0 1 .3.9Z"/>
    <path d="M13.54 35.84v.6c.1-.1.2-.3.4-.4a.76.76 0 0 1 .5-.2 1.48 1.48 0 0 1 .7-.1 1.85 1.85 0 0 1 .7.2 2.65 2.65 0 0 1 .6.5 1.61 1.61 0 0 1 .4.7 2.92 2.92 0 0 1 .2.9v4h-1.1v-4.2a1.03 1.03 0 0 0-1-1 .75.75 0 0 0-.5.1c-.1.1-.3.1-.4.2l-.3.3v4.5h-1.1v-5.1h-.9v-1.1Z"/>
    <path d="M18.94 39.84v-2.9h-1.1v-1.1h1.1v-2h1.1v2h1.3v1.1h-1.3v2.9a1.03 1.03 0 0 0 1 1h.6v1.1h-.6a1.49 1.49 0 0 1-.9-.2 1.8 1.8 0 0 1-.7-.5 4.23 4.23 0 0 1-.5-.7Z"/>
    <path d="M26.94 39.54v-1.6a1.49 1.49 0 0 0-.2-.9 2.62 2.62 0 0 0-1.2-1.2 2.77 2.77 0 0 0-1.8 0 2.62 2.62 0 0 0-1.2 1.2 2.77 2.77 0 0 0-.1.9v1.9a1.49 1.49 0 0 0 .2.9 1.8 1.8 0 0 0 .5.7 4.23 4.23 0 0 0 .7.5 2.92 2.92 0 0 0 .9.2h2v-1.1h-2a1.03 1.03 0 0 1-1-1v-.3h3.2Zm-3.4-1.1v-.5a1.1 1.1 0 1 1 2.2 0v.5Z"/>
    <path d="M29.54 35.84v.6c.1-.1.2-.3.4-.4a.76.76 0 0 1 .5-.2 1.48 1.48 0 0 1 .7-.1 1.85 1.85 0 0 1 .7.2 2.65 2.65 0 0 1 .6.5 1.61 1.61 0 0 1 .4.7 2.92 2.92 0 0 1 .2.9v4h-1.1v-4.2a1.03 1.03 0 0 0-1-1 .75.75 0 0 0-.5.1c-.1.1-.3.1-.4.2l-.3.3v4.5h-1.3v-5.1h-.9v-1.1Z"/>
    <path d="M34.94 39.84v-2.9h-1.1v-1.1h1.1v-2h1.1v2h1.2v1.1h-1.2v2.9a1.03 1.03 0 0 0 1 1h.6v1.1h-.6a1.49 1.49 0 0 1-.9-.2 1.8 1.8 0 0 1-.7-.5 4.23 4.23 0 0 1-.5-.7c.1-.1 0-.4 0-.7Z"/>
    <path d="M47.94 40.74h1v1.2h-2.2v-6.8l-1.6 3h-1.3l-1.5-3.1v6.9h-1.2v-8.8h1.4l2 3.8 1.9-3.8h1.5Z"/>
    <path d="M53.44 36.34a1.65 1.65 0 0 0-1.5-.5h-1.6v1.1h1.6a.88.88 0 0 1 .9.8v.4h-1.5a1.88 1.88 0 0 0-1.7 2 1.83 1.83 0 0 0 1.7 1.7h2.6v-4.2a2.35 2.35 0 0 0-.5-1.3Zm-.6 4.5h-1.5a.7.7 0 1 1 0-1.4h1.5Z"/>
    <path d="M56.94 35.84v.6c.1-.1.2-.3.4-.4a.76.76 0 0 1 .4-.2 1.48 1.48 0 0 1 .7-.1.95.95 0 0 1 .7.2 2.65 2.65 0 0 1 .6.5 1.61 1.61 0 0 1 .4.7 2.92 2.92 0 0 1 .2.9v4h-1.2v-4.2a1.03 1.03 0 0 0-1-1 .75.75 0 0 0-.5.1c-.1.1-.3.1-.4.2l-.3.3v4.5h-1.1v-5.1h-.9v-1.1Z"/>
    <path d="M65.54 36.34a1.65 1.65 0 0 0-1.5-.5h-1.6v1.1h1.6a.88.88 0 0 1 .9.8v.4h-1.5a1.86 1.86 0 0 0-.3 3.7h2.9v-4.2a1.46 1.46 0 0 0-.5-1.3Zm-.6 4.5h-1.5a.7.7 0 1 1 0-1.4h1.5Z"/>
    <path d="M72.34 35.84h-2.9a1.95 1.95 0 0 0-.8.1 1.64 1.64 0 0 0-1 1 1.2 1.2 0 0 0-.2.8 1.27 1.27 0 0 0 .1.6c.1.2.2.3.2.5.1.1.2.3.3.4l-.2.2c-.1.1-.1.2-.2.3a1.1 1.1 0 0 0 0 .8c0 .1.1.2.2.3l.2.2a.78.78 0 0 0-.4.4 2.19 2.19 0 0 0-.3.5 1.27 1.27 0 0 0-.1.6 2.2 2.2 0 0 0 .1.8 1.84 1.84 0 0 0 1 1 2.2 2.2 0 0 0 .8.1h.7a1.72 1.72 0 0 0 1.8-1.1 2.2 2.2 0 0 0 0-1.6c-.1-.2-.2-.5-.4-.6a2.1 2.1 0 0 0-.6-.4 2.49 2.49 0 0 0-.8-.1h-.9a.5.5 0 0 1 0-1h.6a1.72 1.72 0 0 0 1.8-1.1 2.2 2.2 0 0 0 .1-.8v-.3c0-.1 0-.2-.1-.2l.1-.3h.9Zm-3.7 6.3a.9.9 0 0 1 .7-.3h.7a1.07 1.07 0 0 1 .6.2.78.78 0 0 1 0 1.1c-.2.2-.4.3-.6.2h-.7a1.07 1.07 0 0 1-.6-.2.6.6 0 0 1-.1-1Zm1.7-3.8a.9.9 0 0 1-.7.3h-.3a1.07 1.07 0 0 1-.6-.2.78.78 0 0 1 0-1.1c.2-.2.4-.3.6-.2h.3a1.07 1.07 0 0 1 .6.2c.4.1.4.6.1 1Z"/>
    <path d="M77.34 39.54v-1.6a1.49 1.49 0 0 0-.2-.9 2.62 2.62 0 0 0-1.2-1.2 2.77 2.77 0 0 0-1.8 0 2.62 2.62 0 0 0-1.2 1.2 2.92 2.92 0 0 0-.2.9v1.9a1.49 1.49 0 0 0 .2.9 1.8 1.8 0 0 0 .5.7 4.23 4.23 0 0 0 .7.5 2.92 2.92 0 0 0 .9.2h2v-1.1h-2a1.03 1.03 0 0 1-1-1v-.3Zm-3.3-1.6a1.14 1.14 0 0 1 .3-.8 1.22 1.22 0 0 1 1.6 0 1.14 1.14 0 0 1 .3.8v.5h-2.2Z"/>
    <path d="M80.04 35.84v.6l.1-.1c.1-.1.2-.2.3-.2a.76.76 0 0 1 .4-.2 1.27 1.27 0 0 1 .6-.1 1.85 1.85 0 0 1 .7.2c.2.1.3.2.5.3a1 1 0 0 1 .4.5c.1-.2.3-.3.5-.5.2-.1.3-.3.5-.3a1.85 1.85 0 0 1 .7-.2.95.95 0 0 1 .7.2 2.65 2.65 0 0 1 .6.5 1.61 1.61 0 0 1 .4.7 2.92 2.92 0 0 1 .2.9v3.9h-1.2v-4.2a1.05 1.05 0 0 0-1.5-.9c-.1.1-.2.1-.4.2l-.3.3v4.5h-1.1v-4.2a1.05 1.05 0 0 0-1.5-.9c0 .2-.1.2-.2.3l-.3.3v4.5h-1.1v-5.1h-.9v-1.1Z"/>
    <path d="M92.54 39.54v-1.6a1.49 1.49 0 0 0-.2-.9 4.35 4.35 0 0 0-.4-.7 1.8 1.8 0 0 0-.7-.5 2.77 2.77 0 0 0-1.8 0 2.62 2.62 0 0 0-1.2 1.2 2.92 2.92 0 0 0-.2.9v1.9a1.49 1.49 0 0 0 .2.9 1.8 1.8 0 0 0 .5.7 4.23 4.23 0 0 0 .7.5 2.92 2.92 0 0 0 .9.2h2v-1.1h-2a1.03 1.03 0 0 1-1-1v-.3Zm-3.4-1.1v-.5a1.1 1.1 0 1 1 2.2 0v.5h-2.2Z"/>
    <path d="M95.24 35.84v.6c.1-.1.2-.3.4-.4a.76.76 0 0 1 .5-.2 1.48 1.48 0 0 1 .7-.1.95.95 0 0 1 .7.2 2.65 2.65 0 0 1 .6.5 1.61 1.61 0 0 1 .4.7 2.92 2.92 0 0 1 .2.9v4h-1.1v-4.2a1.03 1.03 0 0 0-1-1 .75.75 0 0 0-.5.1c-.1.1-.3.1-.4.2l-.3.3v4.5h-1.1v-5.1h-.9v-1.1Z"/>
    <path d="M100.64 39.84v-2.9h-1.1v-1.1h1.1v-2h1.1v2h1.2v1.1h-1.2v2.9a1.03 1.03 0 0 0 1 1h.6v1.1h-.6a1.49 1.49 0 0 1-.9-.2 1.8 1.8 0 0 1-.7-.5 4.23 4.23 0 0 1-.5-.7Z"/>
    <path d="M106.14 35.64a3.55 3.55 0 0 1 .2-1 2.1 2.1 0 0 1 1.3-1.3 2.96 2.96 0 0 1 1-.2h2.4v1.2h-2.4a1.4 1.4 0 0 0-.9.3 1 1 0 0 0-.3.9.9.9 0 0 0 .3.7 5.58 5.58 0 0 0 .8.5 4.18 4.18 0 0 1 1 .4 4.67 4.67 0 0 1 1.8 1.2 2.02 2.02 0 0 1 .3 1.1 3.55 3.55 0 0 1-.2 1 2.1 2.1 0 0 1-1.3 1.3 3.55 3.55 0 0 1-1 .2h-2.7v-1.2h2.7a1.4 1.4 0 0 0 1.4-1.2v-.2a.9.9 0 0 0-.3-.7 5.58 5.58 0 0 0-.8-.5 4.18 4.18 0 0 1-1-.4 4.67 4.67 0 0 1-1-.5 2.7 2.7 0 0 1-.8-.7.87.87 0 0 1-.5-.9Z"/>
    <path d="m114.74 40.14 1.2-4.3h1.2l-2.1 6.9a2.85 2.85 0 0 1-.8 1.4 2.39 2.39 0 0 1-1.4.5h-.4v-1.1h.4a1.85 1.85 0 0 0 .7-.2.55.55 0 0 0 .3-.5l.2-.8-1.7-4.9h-.8v-1.1h1.6l1.6 4.1Z"/>
    <path d="M120.14 40.84a.68.68 0 0 0 .7-.7v-.1a.52.52 0 0 0-.2-.4 1.42 1.42 0 0 0-.6-.2 1.85 1.85 0 0 0-.7-.2 4.87 4.87 0 0 1-.7-.3 2.65 2.65 0 0 1-.6-.5.78.78 0 0 1-.2-.8 1.48 1.48 0 0 1 .1-.7 1.84 1.84 0 0 1 1-1 1.7 1.7 0 0 1 .7-.1h2.1v1.1h-2.1a.68.68 0 0 0-.7.7.52.52 0 0 0 .2.4 1.42 1.42 0 0 0 .6.2 1.85 1.85 0 0 0 .7.2c.3.1.5.2.8.3a2.65 2.65 0 0 1 .6.5.78.78 0 0 1 .2.8 1.77 1.77 0 0 1-1.6 1.9h-2.5v-1.1Z"/>
    <path d="M123.54 39.84v-2.9h-1.1v-1.1h1.1v-2h1.1v2h1.2v1.1h-1.2v2.9a1.03 1.03 0 0 0 1 1h.6v1.1h-.6a1.49 1.49 0 0 1-.9-.2 1.8 1.8 0 0 1-.7-.5 4.23 4.23 0 0 1-.5-.7Z"/>
    <path d="M131.54 39.54v-1.6a1.49 1.49 0 0 0-.2-.9 2.62 2.62 0 0 0-1.2-1.2 2.77 2.77 0 0 0-1.8 0 2.62 2.62 0 0 0-1.2 1.2 2.92 2.92 0 0 0-.2.9v1.9a1.49 1.49 0 0 0 .2.9 1.8 1.8 0 0 0 .5.7 4.23 4.23 0 0 0 .7.5 2.92 2.92 0 0 0 .9.2h2v-1.1h-2a1.03 1.03 0 0 1-1-1v-.3Zm-3.4-1.1v-.5a1.14 1.14 0 0 1 .3-.8 1.22 1.22 0 0 1 1.6 0 1.14 1.14 0 0 1 .3.8v.5h-2.2Z"/>
    <path d="M134.24 35.84v.6l.1-.1c.1-.1.2-.2.3-.2a.76.76 0 0 1 .5-.2 1.27 1.27 0 0 1 .6-.1.95.95 0 0 1 .7.2c.2.1.3.2.5.3a1 1 0 0 1 .4.5c.1-.2.3-.3.5-.5.2-.1.3-.3.5-.3a1.85 1.85 0 0 1 .7-.2.95.95 0 0 1 .7.2 2.65 2.65 0 0 1 .6.5 1.61 1.61 0 0 1 .4.7 2.92 2.92 0 0 1 .2.9v3.9h-1.1v-4.2a1.05 1.05 0 0 0-1.5-.9c-.1.1-.3.1-.4.2l-.3.3v4.5h-1.2v-4.2a1.05 1.05 0 0 0-1.5-.9c-.1.1-.2.1-.4.2l-.3.3v4.5h-1.1v-5.1h-.9v-1.1Z"/>
  </g>
</svg>
