<svg xmlns="http://www.w3.org/2000/svg" viewBox="0 0 140.7 26.2" height="30">
    <g fill="#00b04b">
        <path d="M0 5.6a5.381 5.381 0 0 1 .4-2.2 5.515 5.515 0 0 1 3-3A5.381 5.381 0 0 1 5.6 0h5.6v2.7H5.6a3.227 3.227 0 0 0-2.1.8 3.227 3.227 0 0 0-.8 2.1 1.99 1.99 0 0 0 .7 1.6 5.244 5.244 0 0 0 1.8 1c.7.2 1.5.5 2.3.8a9.733 9.733 0 0 1 2.3 1.1 5.48 5.48 0 0 1 1.8 1.6 3.675 3.675 0 0 1 .7 2.5 5.957 5.957 0 0 1-5.8 5.9H.3v-2.7h6.1a2.93 2.93 0 0 0 3.1-2.8v-.3a1.99 1.99 0 0 0-.7-1.6 5.244 5.244 0 0 0-1.8-1c-.7-.3-1.5-.6-2.3-.9a9.733 9.733 0 0 1-2.3-1.1A12.878 12.878 0 0 1 .7 8.1 4.75 4.75 0 0 1 0 5.6Z"/>
        <path d="M18.3 11.7h2.4L23.6 6h2.7l-3.6 7 3.6 7h-2.7l-2.9-5.7h-2.4V20h-2.6V2.6h-2V0h4.6v11.7z"/>
        <path d="M29.4 17.4V8.6h-2V6H32v11.4h2.6V20h-7.7v-2.6h2.5z"/>
        <path d="M29.4 0H32v2.9h-2.6z"/>
        <path d="M39.4 20h-2.5V2.6h-2V0h4.6v20h-.1z"/>
        <path d="M46.3 20h-2.6V2.6h-2V0h4.6v20z"/>
        <path d="M55.8 16.9a1.845 1.845 0 0 0 .5-1.2 1.05 1.05 0 0 0-.5-.9c-.4-.2-.9-.4-1.3-.6l-1.7-.5a8.65 8.65 0 0 1-1.7-.7 4.735 4.735 0 0 1-1.3-1.1 2.383 2.383 0 0 1-.5-1.8 5.08 5.08 0 0 1 .3-1.7 3.962 3.962 0 0 1 2.2-2.2 5.419 5.419 0 0 1 1.5-.2H58v2.6h-4.7a1.56 1.56 0 0 0-1.6 1.5 1.05 1.05 0 0 0 .5.9c.4.2.9.4 1.3.6l1.7.5a8.65 8.65 0 0 1 1.7.7 4.735 4.735 0 0 1 1.3 1.1 2.383 2.383 0 0 1 .5 1.8 4.1 4.1 0 0 1-3.8 4.3h-5.7v-2.6h5.1a1.837 1.837 0 0 0 1.5-.5Z"/>
        <path d="M78.8 20h-12V0h12v2.7h-9.3v5.8h6.7v2.7h-6.7v6h9.3V20z"/>
        <path d="M84.2 7.4a2.361 2.361 0 0 1 .9-.8 10.909 10.909 0 0 1 1.1-.6 3.733 3.733 0 0 1 3.1.1 4.508 4.508 0 0 1 1.4 1 4.617 4.617 0 0 1 .9 1.5 6.28 6.28 0 0 1 .3 1.9V20h-2.6v-9.4a2.308 2.308 0 0 0-2.2-2.3H87a5.02 5.02 0 0 0-1.2.2 4.053 4.053 0 0 0-.9.5 2.696 2.696 0 0 0-.8.7V20h-2.6V8.6h-2V6h4.6v1.4Z"/>
        <path d="M105.7 14.5v-3.6a5.223 5.223 0 0 0-.4-2.1 5.095 5.095 0 0 0-2.7-2.7 5.79 5.79 0 0 0-4.1 0 5.095 5.095 0 0 0-2.7 2.7 5.222 5.222 0 0 0-.4 2.1l-.1 4.2a6.467 6.467 0 0 0 .4 2 4.391 4.391 0 0 0 2.5 2.5 4.766 4.766 0 0 0 2 .4h4.6v-2.5h-4.7a2.24 2.24 0 0 1-2.2-2.3v-.7Zm-7.8-3.7a2.562 2.562 0 0 1 2.6-2.5 2.44 2.44 0 0 1 2.5 2.6V12h-5.1Z"/>
        <path d="M106.8 20v-2.6h2.6V8.6h-2V6h4.6v1.4a2.361 2.361 0 0 1 .9-.8A10.908 10.908 0 0 1 114 6a4.013 4.013 0 0 1 1.5-.3h1.1v2.9h-1.7a5.02 5.02 0 0 0-1.2.2 4.053 4.053 0 0 0-.9.5 2.696 2.696 0 0 0-.8.7v7.4h2.6V20Z"/>
        <path d="M128.8 6.3h-6.7a5.824 5.824 0 0 0-1.9.3 3.918 3.918 0 0 0-2.3 2.3 5.662 5.662 0 0 0-.3 1.8 3.644 3.644 0 0 0 .2 1.4 3.127 3.127 0 0 0 .5 1 3.044 3.044 0 0 0 .8.8l-.6.6a1.612 1.612 0 0 0-.4.7 3.083 3.083 0 0 0 0 1.9 2.506 2.506 0 0 0 .4.7l.6.6a6.471 6.471 0 0 0-.9.8 8.8 8.8 0 0 0-.6 1 3.194 3.194 0 0 0-.3 1.4 5.44 5.44 0 0 0 .4 2 3.918 3.918 0 0 0 2.3 2.3 6.28 6.28 0 0 0 1.9.3h1.6a5.823 5.823 0 0 0 1.9-.3 3.917 3.917 0 0 0 2.3-2.3 5.547 5.547 0 0 0 0-3.6 3.917 3.917 0 0 0-2.3-2.3 6.279 6.279 0 0 0-1.9-.3h-2.3a.937.937 0 0 1-.8-1.1V16a.937.937 0 0 1 1.1-.8h1.4a5.824 5.824 0 0 0 1.9-.3 3.918 3.918 0 0 0 2.3-2.3 5.662 5.662 0 0 0 .3-1.8 1.702 1.702 0 0 0-.1-.7 1.422 1.422 0 0 0-.2-.6l-.3-.6h2Zm-8.3 13.9a2.39 2.39 0 0 1 1.4-.5h1.6a1.553 1.553 0 0 1 1.4.5l.1.1a1.754 1.754 0 0 1-.1 2.5 1.974 1.974 0 0 1-1.4.6h-1.6a1.974 1.974 0 0 1-1.4-.6l-.1-.1a1.754 1.754 0 0 1 .1-2.5Zm3.8-8.5a1.975 1.975 0 0 1-1.4.6h-.7a1.974 1.974 0 0 1-1.4-.6l-.1-.1a1.754 1.754 0 0 1 .1-2.5 1.974 1.974 0 0 1 1.4-.6h.7a1.975 1.975 0 0 1 1.4.6l.1.1a1.754 1.754 0 0 1-.1 2.5Z"/>
        <path d="M138 6h2.7L136 21.7a6.832 6.832 0 0 1-1.8 3.2 4.69 4.69 0 0 1-3.1 1.1h-.9v-2.6h.9a2.104 2.104 0 0 0 1.5-.5 3.166 3.166 0 0 0 .8-1.2l.6-1.9-3.9-11.3h-1.9V6h3.7l3.2 9.9Z"/>
    </g>
</svg>